<svg width="168" height="38" viewBox="0 0 168 38" fill="none" xmlns="http://www.w3.org/2000/svg">
<path d="M94.006 31H121.078L121.311 27.0148H104.044V22.4691H117.816V17.8482H104.044V12.9128H122.154L122.503 7H92.5739L94.006 31Z" fill="#E1251B"/>
<path d="M65.8085 7V17.8413H58.4769V7H47L48.4321 31H58.4769V22.4691H65.8085V31H75.8465L77.2786 7H65.8085Z" fill="#E1251B"/>
<path d="M162.936 20.1996C165.979 19.3315 168 17.5679 168 13.863C168.007 9.62489 164.601 7 160.23 7H137.708L139.14 31H158.825C167.424 31 166.938 25.2375 166.938 25.2375C166.938 22.7972 165.3 20.7602 162.936 20.2065M153.399 27.0216H149.185V22.4759H153.248C155.468 22.4759 156.653 23.18 156.653 24.7659C156.653 26.3517 155.577 27.0216 153.392 27.0216M153.721 17.855H149.185V12.9197H153.563C155.975 12.9197 157.263 13.6853 157.263 15.4078C157.263 17.1304 156.098 17.855 153.727 17.855" fill="#E1251B"/>
<path d="M81.2655 17.8495L81.5395 22.4704H88.3092L88.5833 17.8495H81.2655Z" fill="#E1251B"/>
<path d="M126.405 17.8425L126.679 22.4703H133.449L133.729 17.8425H126.405Z" fill="#E1251B"/>
<path d="M32.3847 12.8853L31.9645 13.8523C31.8988 14.0097 31.788 14.1442 31.646 14.2388C31.5041 14.3334 31.3373 14.3839 31.1667 14.3839C30.9961 14.3839 30.8293 14.3334 30.6873 14.2388C30.5454 14.1442 30.4346 14.0097 30.3689 13.8523L29.9486 12.8853C29.2097 11.1748 27.8566 9.80337 26.1561 9.04159L24.8595 8.46246C24.7022 8.3901 24.5689 8.27415 24.4755 8.12836C24.3821 7.98257 24.3325 7.81305 24.3325 7.6399C24.3325 7.46675 24.3821 7.29723 24.4755 7.15144C24.5689 7.00565 24.7022 6.8897 24.8595 6.81734L26.0844 6.27238C27.8276 5.4889 29.2039 4.06672 29.9298 2.29879L30.362 1.255C30.4255 1.09332 30.5362 0.954504 30.6798 0.856663C30.8233 0.758821 30.993 0.70649 31.1667 0.70649C31.3404 0.70649 31.51 0.758821 31.6536 0.856663C31.7971 0.954504 31.9078 1.09332 31.9713 1.255L32.4035 2.29709C33.1287 4.06534 34.5044 5.48814 36.2473 6.27238L37.4738 6.81905C37.6307 6.89161 37.7634 7.00755 37.8565 7.15315C37.9496 7.29875 37.999 7.46795 37.999 7.64075C37.999 7.81356 37.9496 7.98275 37.8565 8.12836C37.7634 8.27396 37.6307 8.38989 37.4738 8.46246L36.1755 9.03988C34.4754 9.80242 33.1228 11.1745 32.3847 12.8853ZM31.1667 17.7917C32.3262 17.7926 33.4774 17.5968 34.5714 17.2125C34.5793 17.4062 34.5833 17.5992 34.5833 17.7917C34.5833 21.4163 33.1435 24.8925 30.5805 27.4555C28.0175 30.0185 24.5413 31.4583 20.9167 31.4583V37.4375C12.375 34.0208 0.416672 28.8958 0.416672 17.7917C0.416672 14.167 1.85655 10.6909 4.41955 8.12788C6.98254 5.56488 10.4587 4.125 14.0833 4.125H20.9167C21.1103 4.125 21.3033 4.12899 21.4958 4.13696C20.9514 5.68287 20.7856 7.3368 21.0124 8.96C21.2392 10.5832 21.8519 12.1284 22.7992 13.4659C23.7465 14.8034 25.0007 15.8942 26.4566 16.6469C27.9125 17.3996 29.5277 17.7921 31.1667 17.7917Z" fill="#E1251B"/>
</svg>
